<mxfile host="app.diagrams.net" modified="2021-12-03T07:25:51.027Z" agent="5.0 (Macintosh; Intel Mac OS X 10_15_7) AppleWebKit/537.36 (KHTML, like Gecko) Chrome/96.0.4664.55 Safari/537.36" etag="h__uKy0fbu4lq6APMrAa" version="15.8.3" type="github">
  <diagram id="qrn7LukMrWfTkTVZdIuu" name="第 1 页">
    <mxGraphModel dx="1166" dy="626" grid="0" gridSize="12" guides="1" tooltips="1" connect="1" arrows="1" fold="1" page="1" pageScale="1" pageWidth="1169" pageHeight="827" math="0" shadow="0">
      <root>
        <mxCell id="0" />
        <mxCell id="1" parent="0" />
        <mxCell id="TG3p8TgN5c7mcJ-ZwnO4-1" value="PgSQL" style="rounded=0;whiteSpace=wrap;html=1;" vertex="1" parent="1">
          <mxGeometry x="270" y="584" width="120" height="60" as="geometry" />
        </mxCell>
        <mxCell id="TG3p8TgN5c7mcJ-ZwnO4-2" value="Redis" style="rounded=0;whiteSpace=wrap;html=1;" vertex="1" parent="1">
          <mxGeometry x="420" y="584" width="120" height="60" as="geometry" />
        </mxCell>
        <mxCell id="TG3p8TgN5c7mcJ-ZwnO4-3" value="etcd" style="rounded=0;whiteSpace=wrap;html=1;" vertex="1" parent="1">
          <mxGeometry x="580" y="584" width="120" height="60" as="geometry" />
        </mxCell>
        <mxCell id="TG3p8TgN5c7mcJ-ZwnO4-4" value="&lt;span&gt;&lt;font style=&quot;font-size: 18px&quot;&gt;&amp;nbsp;resources&lt;/font&gt;&lt;/span&gt;" style="rounded=0;whiteSpace=wrap;html=1;" vertex="1" parent="1">
          <mxGeometry x="500" y="464" width="120" height="60" as="geometry" />
        </mxCell>
        <mxCell id="TG3p8TgN5c7mcJ-ZwnO4-5" value="" style="endArrow=none;dashed=1;html=1;rounded=0;fontSize=18;" edge="1" parent="1">
          <mxGeometry width="50" height="50" relative="1" as="geometry">
            <mxPoint x="260" y="554" as="sourcePoint" />
            <mxPoint x="860" y="554" as="targetPoint" />
          </mxGeometry>
        </mxCell>
        <mxCell id="TG3p8TgN5c7mcJ-ZwnO4-6" value="" style="endArrow=none;dashed=1;html=1;rounded=0;fontSize=18;" edge="1" parent="1">
          <mxGeometry width="50" height="50" relative="1" as="geometry">
            <mxPoint x="264" y="288" as="sourcePoint" />
            <mxPoint x="854" y="288" as="targetPoint" />
          </mxGeometry>
        </mxCell>
        <mxCell id="TG3p8TgN5c7mcJ-ZwnO4-9" value="go-fastdfs" style="rounded=0;whiteSpace=wrap;html=1;fontSize=12;fillColor=none;align=center;" vertex="1" parent="1">
          <mxGeometry x="732" y="584" width="120" height="60" as="geometry" />
        </mxCell>
        <mxCell id="TG3p8TgN5c7mcJ-ZwnO4-12" value="文件管理" style="rounded=0;whiteSpace=wrap;html=1;fontSize=12;fillColor=none;align=center;" vertex="1" parent="1">
          <mxGeometry x="372" y="192" width="120" height="60" as="geometry" />
        </mxCell>
        <mxCell id="TG3p8TgN5c7mcJ-ZwnO4-13" value="业务" style="text;html=1;align=center;verticalAlign=middle;resizable=0;points=[];autosize=1;strokeColor=none;fillColor=none;fontSize=12;" vertex="1" parent="1">
          <mxGeometry x="290" y="210" width="48" height="24" as="geometry" />
        </mxCell>
        <mxCell id="TG3p8TgN5c7mcJ-ZwnO4-14" value="资源管理" style="text;html=1;align=center;verticalAlign=middle;resizable=0;points=[];autosize=1;strokeColor=none;fillColor=none;fontSize=12;" vertex="1" parent="1">
          <mxGeometry x="282" y="482" width="72" height="24" as="geometry" />
        </mxCell>
        <mxCell id="TG3p8TgN5c7mcJ-ZwnO4-15" value="工具交互" style="rounded=0;whiteSpace=wrap;html=1;fontSize=12;fillColor=none;align=center;" vertex="1" parent="1">
          <mxGeometry x="524" y="192" width="120" height="60" as="geometry" />
        </mxCell>
        <mxCell id="TG3p8TgN5c7mcJ-ZwnO4-16" value="权限控制" style="rounded=0;whiteSpace=wrap;html=1;fontSize=12;fillColor=none;align=center;" vertex="1" parent="1">
          <mxGeometry x="672" y="192" width="120" height="60" as="geometry" />
        </mxCell>
        <mxCell id="TG3p8TgN5c7mcJ-ZwnO4-19" value="" style="edgeStyle=orthogonalEdgeStyle;rounded=0;orthogonalLoop=1;jettySize=auto;html=1;fontSize=12;" edge="1" parent="1" source="TG3p8TgN5c7mcJ-ZwnO4-17" target="TG3p8TgN5c7mcJ-ZwnO4-4">
          <mxGeometry relative="1" as="geometry" />
        </mxCell>
        <mxCell id="TG3p8TgN5c7mcJ-ZwnO4-17" value="日志管理" style="rounded=0;whiteSpace=wrap;html=1;fontSize=12;fillColor=none;align=center;" vertex="1" parent="1">
          <mxGeometry x="500" y="336" width="120" height="60" as="geometry" />
        </mxCell>
        <mxCell id="TG3p8TgN5c7mcJ-ZwnO4-18" value="" style="endArrow=none;dashed=1;html=1;rounded=0;fontSize=12;" edge="1" parent="1">
          <mxGeometry width="50" height="50" relative="1" as="geometry">
            <mxPoint x="264" y="434" as="sourcePoint" />
            <mxPoint x="852" y="434" as="targetPoint" />
          </mxGeometry>
        </mxCell>
        <mxCell id="TG3p8TgN5c7mcJ-ZwnO4-20" value="" style="endArrow=classic;html=1;rounded=0;fontSize=12;entryX=0.5;entryY=0;entryDx=0;entryDy=0;exitX=0.25;exitY=1;exitDx=0;exitDy=0;" edge="1" parent="1" source="TG3p8TgN5c7mcJ-ZwnO4-4" target="TG3p8TgN5c7mcJ-ZwnO4-1">
          <mxGeometry width="50" height="50" relative="1" as="geometry">
            <mxPoint x="396" y="542" as="sourcePoint" />
            <mxPoint x="446" y="492" as="targetPoint" />
          </mxGeometry>
        </mxCell>
        <mxCell id="TG3p8TgN5c7mcJ-ZwnO4-21" value="" style="endArrow=classic;html=1;rounded=0;fontSize=12;entryX=0.5;entryY=0;entryDx=0;entryDy=0;exitX=0.408;exitY=1;exitDx=0;exitDy=0;exitPerimeter=0;" edge="1" parent="1" source="TG3p8TgN5c7mcJ-ZwnO4-4" target="TG3p8TgN5c7mcJ-ZwnO4-2">
          <mxGeometry width="50" height="50" relative="1" as="geometry">
            <mxPoint x="540" y="528" as="sourcePoint" />
            <mxPoint x="182" y="492" as="targetPoint" />
          </mxGeometry>
        </mxCell>
        <mxCell id="TG3p8TgN5c7mcJ-ZwnO4-22" value="" style="endArrow=classic;html=1;rounded=0;fontSize=12;exitX=0.575;exitY=1;exitDx=0;exitDy=0;exitPerimeter=0;entryX=0.5;entryY=0;entryDx=0;entryDy=0;" edge="1" parent="1" source="TG3p8TgN5c7mcJ-ZwnO4-4" target="TG3p8TgN5c7mcJ-ZwnO4-3">
          <mxGeometry width="50" height="50" relative="1" as="geometry">
            <mxPoint x="120" y="590" as="sourcePoint" />
            <mxPoint x="170" y="540" as="targetPoint" />
          </mxGeometry>
        </mxCell>
        <mxCell id="TG3p8TgN5c7mcJ-ZwnO4-23" value="" style="endArrow=classic;html=1;rounded=0;fontSize=12;entryX=0.5;entryY=0;entryDx=0;entryDy=0;exitX=0.842;exitY=1;exitDx=0;exitDy=0;exitPerimeter=0;" edge="1" parent="1" source="TG3p8TgN5c7mcJ-ZwnO4-4" target="TG3p8TgN5c7mcJ-ZwnO4-9">
          <mxGeometry width="50" height="50" relative="1" as="geometry">
            <mxPoint x="648" y="530" as="sourcePoint" />
            <mxPoint x="698" y="480" as="targetPoint" />
          </mxGeometry>
        </mxCell>
        <mxCell id="TG3p8TgN5c7mcJ-ZwnO4-25" value="" style="endArrow=classic;html=1;rounded=0;fontSize=12;exitX=0.5;exitY=1;exitDx=0;exitDy=0;" edge="1" parent="1" source="TG3p8TgN5c7mcJ-ZwnO4-15" target="TG3p8TgN5c7mcJ-ZwnO4-17">
          <mxGeometry width="50" height="50" relative="1" as="geometry">
            <mxPoint x="684" y="386" as="sourcePoint" />
            <mxPoint x="734" y="336" as="targetPoint" />
          </mxGeometry>
        </mxCell>
        <mxCell id="TG3p8TgN5c7mcJ-ZwnO4-26" value="" style="endArrow=classic;html=1;rounded=0;fontSize=12;entryX=0.75;entryY=0;entryDx=0;entryDy=0;exitX=0.5;exitY=1;exitDx=0;exitDy=0;" edge="1" parent="1" source="TG3p8TgN5c7mcJ-ZwnO4-16" target="TG3p8TgN5c7mcJ-ZwnO4-4">
          <mxGeometry width="50" height="50" relative="1" as="geometry">
            <mxPoint x="720" y="302" as="sourcePoint" />
            <mxPoint x="770" y="252" as="targetPoint" />
          </mxGeometry>
        </mxCell>
        <mxCell id="TG3p8TgN5c7mcJ-ZwnO4-27" value="" style="endArrow=classic;html=1;rounded=0;fontSize=12;entryX=0.133;entryY=0;entryDx=0;entryDy=0;exitX=0.5;exitY=1;exitDx=0;exitDy=0;entryPerimeter=0;" edge="1" parent="1" source="TG3p8TgN5c7mcJ-ZwnO4-12" target="TG3p8TgN5c7mcJ-ZwnO4-4">
          <mxGeometry width="50" height="50" relative="1" as="geometry">
            <mxPoint x="312" y="350" as="sourcePoint" />
            <mxPoint x="362" y="300" as="targetPoint" />
          </mxGeometry>
        </mxCell>
        <mxCell id="TG3p8TgN5c7mcJ-ZwnO4-29" value="" style="endArrow=none;dashed=1;html=1;rounded=0;fontSize=12;" edge="1" parent="1">
          <mxGeometry width="50" height="50" relative="1" as="geometry">
            <mxPoint x="264" y="144" as="sourcePoint" />
            <mxPoint x="852" y="144" as="targetPoint" />
          </mxGeometry>
        </mxCell>
        <mxCell id="TG3p8TgN5c7mcJ-ZwnO4-30" value="Proxy" style="rounded=0;whiteSpace=wrap;html=1;fontSize=12;fillColor=none;align=center;" vertex="1" parent="1">
          <mxGeometry x="516" y="48" width="120" height="60" as="geometry" />
        </mxCell>
        <mxCell id="TG3p8TgN5c7mcJ-ZwnO4-31" value="网关" style="text;html=1;align=center;verticalAlign=middle;resizable=0;points=[];autosize=1;strokeColor=none;fillColor=none;fontSize=12;" vertex="1" parent="1">
          <mxGeometry x="284" y="70" width="48" height="24" as="geometry" />
        </mxCell>
        <mxCell id="TG3p8TgN5c7mcJ-ZwnO4-32" value="" style="endArrow=classic;html=1;rounded=0;fontSize=12;entryX=0.5;entryY=0;entryDx=0;entryDy=0;" edge="1" parent="1" target="TG3p8TgN5c7mcJ-ZwnO4-12">
          <mxGeometry width="50" height="50" relative="1" as="geometry">
            <mxPoint x="564" y="108" as="sourcePoint" />
            <mxPoint x="446" y="96" as="targetPoint" />
          </mxGeometry>
        </mxCell>
        <mxCell id="TG3p8TgN5c7mcJ-ZwnO4-33" value="" style="endArrow=classic;html=1;rounded=0;fontSize=12;entryX=0.5;entryY=0;entryDx=0;entryDy=0;exitX=0.5;exitY=1;exitDx=0;exitDy=0;" edge="1" parent="1" source="TG3p8TgN5c7mcJ-ZwnO4-30" target="TG3p8TgN5c7mcJ-ZwnO4-15">
          <mxGeometry width="50" height="50" relative="1" as="geometry">
            <mxPoint x="660" y="134" as="sourcePoint" />
            <mxPoint x="710" y="84" as="targetPoint" />
          </mxGeometry>
        </mxCell>
        <mxCell id="TG3p8TgN5c7mcJ-ZwnO4-34" value="" style="endArrow=classic;html=1;rounded=0;fontSize=12;entryX=0.5;entryY=0;entryDx=0;entryDy=0;" edge="1" parent="1" target="TG3p8TgN5c7mcJ-ZwnO4-16">
          <mxGeometry width="50" height="50" relative="1" as="geometry">
            <mxPoint x="588" y="108" as="sourcePoint" />
            <mxPoint x="722" y="72" as="targetPoint" />
          </mxGeometry>
        </mxCell>
        <mxCell id="TG3p8TgN5c7mcJ-ZwnO4-35" value="日志统一能力" style="text;html=1;align=center;verticalAlign=middle;resizable=0;points=[];autosize=1;strokeColor=none;fillColor=none;fontSize=12;" vertex="1" parent="1">
          <mxGeometry x="270" y="358" width="96" height="24" as="geometry" />
        </mxCell>
      </root>
    </mxGraphModel>
  </diagram>
</mxfile>
